<svg width="914" height="400" viewBox="0 0 914 400" fill="none" xmlns="http://www.w3.org/2000/svg">
<style>
  .crafted { fill: #999; }
  .heart { fill: #DBB0B0; }
  .ek { fill: #333; }
  .logo { fill: #E5E5E5; }
  @media (prefers-color-scheme: dark) {
    .crafted { fill: #777; }
    .heart { fill: #6d4a4a; }
    .ek { fill: #CCC; }
    .logo { fill: #333; }
  }
</style>
<path d="M385.142 186.648C384.521 186.977 383.747 187.141 382.822 187.141C381.626 187.141 380.669 186.756 379.951 185.986C379.232 185.217 378.872 184.207 378.872 182.957C378.872 181.613 379.277 180.527 380.085 179.699C380.894 178.871 381.919 178.457 383.161 178.457C383.958 178.457 384.618 178.572 385.142 178.803V179.852C384.54 179.516 383.876 179.348 383.15 179.348C382.185 179.348 381.402 179.67 380.8 180.314C380.202 180.959 379.904 181.82 379.904 182.898C379.904 183.922 380.183 184.738 380.742 185.348C381.304 185.953 382.04 186.256 382.951 186.256C383.794 186.256 384.525 186.068 385.142 185.693V186.648ZM395.996 187H394.824L393.418 184.645C393.289 184.426 393.164 184.24 393.043 184.088C392.922 183.932 392.797 183.805 392.668 183.707C392.543 183.609 392.406 183.539 392.258 183.496C392.113 183.449 391.949 183.426 391.766 183.426H390.957V187H389.973V178.598H392.481C392.848 178.598 393.186 178.645 393.494 178.738C393.807 178.828 394.076 178.967 394.303 179.154C394.533 179.342 394.713 179.576 394.842 179.857C394.971 180.135 395.035 180.461 395.035 180.836C395.035 181.129 394.99 181.398 394.901 181.645C394.815 181.887 394.69 182.104 394.526 182.295C394.365 182.486 394.17 182.65 393.94 182.787C393.713 182.92 393.457 183.023 393.172 183.098V183.121C393.313 183.184 393.434 183.256 393.535 183.338C393.641 183.416 393.74 183.51 393.834 183.619C393.928 183.729 394.02 183.854 394.11 183.994C394.203 184.131 394.307 184.291 394.42 184.475L395.996 187ZM390.957 179.488V182.535H392.293C392.539 182.535 392.766 182.498 392.973 182.424C393.184 182.35 393.365 182.244 393.518 182.107C393.67 181.967 393.789 181.797 393.875 181.598C393.961 181.395 394.004 181.168 394.004 180.918C394.004 180.469 393.858 180.119 393.565 179.869C393.276 179.615 392.856 179.488 392.305 179.488H390.957ZM406.78 187H405.691L404.8 184.645H401.237L400.4 187H399.304L402.526 178.598H403.546L406.78 187ZM404.478 183.76L403.159 180.18C403.116 180.062 403.073 179.875 403.03 179.617H403.007C402.968 179.855 402.923 180.043 402.872 180.18L401.566 183.76H404.478ZM415.408 179.488H412.127V182.395H415.162V183.279H412.127V187H411.143V178.598H415.408V179.488ZM425.091 179.488H422.665V187H421.681V179.488H419.261V178.598H425.091V179.488ZM433.988 187H429.535V178.598H433.801V179.488H430.519V182.283H433.554V183.168H430.519V186.109H433.988V187ZM438.725 187V178.598H441.046C444.006 178.598 445.487 179.963 445.487 182.693C445.487 183.99 445.075 185.033 444.251 185.822C443.43 186.607 442.331 187 440.952 187H438.725ZM439.71 179.488V186.109H440.964C442.065 186.109 442.922 185.814 443.536 185.225C444.149 184.635 444.456 183.799 444.456 182.717C444.456 180.564 443.311 179.488 441.022 179.488H439.71ZM466.633 178.598L464.26 187H463.106L461.377 180.859C461.303 180.598 461.258 180.312 461.243 180.004H461.219C461.196 180.293 461.145 180.574 461.067 180.848L459.327 187H458.184L455.723 178.598H456.807L458.594 185.043C458.668 185.312 458.715 185.594 458.735 185.887H458.764C458.784 185.68 458.844 185.398 458.946 185.043L460.803 178.598H461.746L463.528 185.09C463.59 185.312 463.637 185.574 463.668 185.875H463.692C463.707 185.672 463.76 185.402 463.85 185.066L465.567 178.598H466.633ZM471.991 187H471.007V178.598H471.991V187ZM482.295 179.488H479.869V187H478.885V179.488H476.465V178.598H482.295V179.488ZM493.056 187H492.071V183.168H487.724V187H486.739V178.598H487.724V182.283H492.071V178.598H493.056V187ZM520.469 187H519.484V178.598H520.469V187ZM532.577 187H531.37L527.046 180.303C526.936 180.135 526.846 179.959 526.776 179.775H526.741C526.772 179.955 526.788 180.34 526.788 180.93V187H525.803V178.598H527.081L531.288 185.189C531.464 185.463 531.577 185.65 531.628 185.752H531.651C531.612 185.51 531.592 185.098 531.592 184.516V178.598H532.577V187Z" class="crafted"/>
<path d="M508.131 178.653C508.38 178.653 508.621 178.699 508.854 178.792C509.091 178.881 509.299 179.019 509.476 179.205C509.658 179.387 509.802 179.618 509.908 179.897C510.018 180.176 510.073 180.506 510.073 180.887C510.073 181.31 510.005 181.706 509.87 182.074C509.734 182.438 509.557 182.781 509.337 183.103C509.117 183.424 508.867 183.727 508.588 184.01C508.313 184.29 508.033 184.558 507.75 184.816C507.466 185.07 507.191 185.316 506.925 185.553C506.662 185.785 506.436 186.014 506.245 186.238H506.188C505.998 186.014 505.771 185.785 505.509 185.553C505.247 185.316 504.974 185.07 504.69 184.816C504.407 184.558 504.125 184.29 503.846 184.01C503.571 183.727 503.323 183.424 503.103 183.103C502.883 182.781 502.705 182.438 502.57 182.074C502.435 181.706 502.367 181.31 502.367 180.887C502.367 180.506 502.42 180.176 502.526 179.897C502.636 179.618 502.779 179.387 502.957 179.205C503.139 179.019 503.347 178.881 503.579 178.792C503.816 178.699 504.06 178.653 504.309 178.653C504.55 178.653 504.766 178.685 504.957 178.748C505.151 178.812 505.325 178.898 505.477 179.008C505.634 179.114 505.769 179.237 505.883 179.376C506.002 179.512 506.104 179.652 506.188 179.795H506.245C506.33 179.652 506.432 179.512 506.55 179.376C506.668 179.237 506.804 179.114 506.956 179.008C507.113 178.898 507.286 178.812 507.477 178.748C507.671 178.685 507.889 178.653 508.131 178.653Z" class="heart"/>
<path d="M375.004 212.957V215.887H367.469V220.082H376.258V223H364.117V206.266H376.258V209.195H367.469V212.957H375.004ZM388.059 207.52C389.34 208.426 390.035 209.68 390.145 211.281H386.992C386.891 210.57 386.543 210.008 385.949 209.594C385.371 209.219 384.664 209.031 383.828 209.031C383.133 209.031 382.527 209.168 382.012 209.441C381.34 209.793 381 210.297 380.992 210.953C380.992 211.844 381.828 212.484 383.5 212.875C386.289 213.547 387.828 213.953 388.117 214.094C389.82 214.844 390.672 216.098 390.672 217.855C390.672 218.41 390.602 218.926 390.461 219.402C390.336 219.832 390.156 220.215 389.922 220.551C389.375 221.316 388.605 221.938 387.613 222.414C386.723 222.805 385.762 223 384.73 223C380.965 222.969 378.723 221.77 378.004 219.402C377.848 218.973 377.754 218.504 377.723 217.996H380.91C380.988 218.551 381.223 219.02 381.613 219.402C381.715 219.512 381.84 219.617 381.988 219.719C382.574 220.133 383.344 220.34 384.297 220.34C385.141 220.34 385.879 220.16 386.512 219.801C386.715 219.691 386.887 219.559 387.027 219.402C387.293 219.098 387.426 218.734 387.426 218.312C387.457 217.391 386.648 216.73 385 216.332C382.273 215.676 380.742 215.262 380.406 215.09C378.758 214.301 377.941 212.984 377.957 211.141C377.973 210.18 378.215 209.328 378.684 208.586C379.16 207.852 379.887 207.281 380.863 206.875C381.785 206.469 382.773 206.266 383.828 206.266C385.516 206.266 386.926 206.684 388.059 207.52ZM402.355 207.52C403.637 208.426 404.332 209.68 404.441 211.281H401.289C401.188 210.57 400.84 210.008 400.246 209.594C399.668 209.219 398.961 209.031 398.125 209.031C397.43 209.031 396.824 209.168 396.309 209.441C395.637 209.793 395.297 210.297 395.289 210.953C395.289 211.844 396.125 212.484 397.797 212.875C400.586 213.547 402.125 213.953 402.414 214.094C404.117 214.844 404.969 216.098 404.969 217.855C404.969 218.41 404.898 218.926 404.758 219.402C404.633 219.832 404.453 220.215 404.219 220.551C403.672 221.316 402.902 221.938 401.91 222.414C401.02 222.805 400.059 223 399.027 223C395.262 222.969 393.02 221.77 392.301 219.402C392.145 218.973 392.051 218.504 392.02 217.996H395.207C395.285 218.551 395.52 219.02 395.91 219.402C396.012 219.512 396.137 219.617 396.285 219.719C396.871 220.133 397.641 220.34 398.594 220.34C399.438 220.34 400.176 220.16 400.809 219.801C401.012 219.691 401.184 219.559 401.324 219.402C401.59 219.098 401.723 218.734 401.723 218.312C401.754 217.391 400.945 216.73 399.297 216.332C396.57 215.676 395.039 215.262 394.703 215.09C393.055 214.301 392.238 212.984 392.254 211.141C392.27 210.18 392.512 209.328 392.98 208.586C393.457 207.852 394.184 207.281 395.16 206.875C396.082 206.469 397.07 206.266 398.125 206.266C399.812 206.266 401.223 206.684 402.355 207.52ZM428.922 206.266V223H425.582V212.125L418.469 222.988V223H406.328V220.07H415.117V216.309H407.594V213.379H415.117V209.184H406.328V206.266H418.469V217.129L425.582 206.266H428.922ZM443.84 209.195H438.824V223H435.484V209.195H430.469V206.266H443.84V209.195ZM448.598 223H445.234V206.266H448.598V223ZM457.809 210.027L453.602 223H449.922L455.84 206.266H459.93L465.824 223H461.98L457.855 210.027H457.809ZM470.605 206.266V220.07H478.141V223H467.266V206.266H470.605ZM496.105 206.266H499.445V223H496.105V216.871L489.965 223H485.664L493.996 214.633L485.664 206.266H489.672L496.105 212.711V206.266ZM508.551 210.027L504.344 223H500.664L506.582 206.266H510.672L516.566 223H512.723L508.598 210.027H508.551ZM534.051 214.633C534.051 216.961 533.227 218.941 531.578 220.574C529.977 222.191 528.02 223 525.707 223H525.461C523.25 222.945 521.359 222.137 519.789 220.574C518.141 218.941 517.316 216.961 517.316 214.633C517.316 212.336 518.141 210.363 519.789 208.715C521.359 207.137 523.25 206.324 525.461 206.277C525.539 206.27 525.621 206.266 525.707 206.266C528.02 206.266 529.977 207.082 531.578 208.715C533.227 210.363 534.051 212.336 534.051 214.633ZM545.91 207.52C547.191 208.426 547.887 209.68 547.996 211.281H544.844C544.742 210.57 544.395 210.008 543.801 209.594C543.223 209.219 542.516 209.031 541.68 209.031C540.984 209.031 540.379 209.168 539.863 209.441C539.191 209.793 538.852 210.297 538.844 210.953C538.844 211.844 539.68 212.484 541.352 212.875C544.141 213.547 545.68 213.953 545.969 214.094C547.672 214.844 548.523 216.098 548.523 217.855C548.523 218.41 548.453 218.926 548.312 219.402C548.188 219.832 548.008 220.215 547.773 220.551C547.227 221.316 546.457 221.938 545.465 222.414C544.574 222.805 543.613 223 542.582 223C538.816 222.969 536.574 221.77 535.855 219.402C535.699 218.973 535.605 218.504 535.574 217.996H538.762C538.84 218.551 539.074 219.02 539.465 219.402C539.566 219.512 539.691 219.617 539.84 219.719C540.426 220.133 541.195 220.34 542.148 220.34C542.992 220.34 543.73 220.16 544.363 219.801C544.566 219.691 544.738 219.559 544.879 219.402C545.145 219.098 545.277 218.734 545.277 218.312C545.309 217.391 544.5 216.73 542.852 216.332C540.125 215.676 538.594 215.262 538.258 215.09C536.609 214.301 535.793 212.984 535.809 211.141C535.824 210.18 536.066 209.328 536.535 208.586C537.012 207.852 537.738 207.281 538.715 206.875C539.637 206.469 540.625 206.266 541.68 206.266C543.367 206.266 544.777 206.684 545.91 207.52Z" class="ek"/>
<path d="M465.965 356.055H462.605L457.176 361.484V356.055H446.844V358.643H454.598V361.641H447.879V364.111H454.598V367.422H446.844V370H457.176V364.834L457.244 364.902L457.342 365L457.381 365.039C457.394 365.052 457.413 365.072 457.439 365.098C457.465 365.124 457.488 365.143 457.508 365.156C459.096 366.745 460.701 368.35 462.322 369.971C462.322 369.971 462.326 369.971 462.332 369.971L462.361 370H465.965L458.992 363.027L465.965 356.055Z" class="logo"/>
</svg>
