<svg width="224" height="34" fill="none" xmlns="http://www.w3.org/2000/svg">
  <path fill="#fff" d="M0 0h224v34H0z"/>
  <path fill="#333" d="M0 0h160v34H0z"/>
  <path d="M23.091 18.625c0 2.348-1.03 3.521-3.093 3.521-1.965 0-2.948-1.13-2.948-3.392v-5.156h.78v5.086c0 .921.185 1.61.556 2.068.371.457.946.686 1.723.686 1.469 0 2.203-.891 2.203-2.672v-5.168h.78v5.027zm5.26.105V22h-.78v-8.402h2.168c.442 0 .832.054 1.172.164.34.11.627.267.862.474.234.207.412.461.533.762.121.3.181.645.181 1.031 0 .39-.068.752-.205 1.084a2.457 2.457 0 01-.591.856 2.739 2.739 0 01-.932.562c-.367.133-.783.2-1.248.2h-1.16zm0-4.418v3.704h1.113c.723 0 1.271-.168 1.646-.504.375-.336.563-.81.563-1.424 0-1.184-.691-1.776-2.074-1.776H28.35zM36.593 22v-8.402h2.209c1.437 0 2.523.345 3.257 1.037.735.687 1.102 1.705 1.102 3.053 0 .648-.104 1.238-.31 1.769a3.767 3.767 0 01-.885 1.365 4.024 4.024 0 01-1.407.873c-.55.203-1.171.305-1.863.305h-2.103zm.779-7.688v6.979h1.289a4.73 4.73 0 001.547-.234 3.123 3.123 0 001.16-.686c.316-.305.557-.68.72-1.125.169-.445.253-.957.253-1.535 0-2.266-1.198-3.398-3.592-3.398h-1.377zM52.487 22l-.926-2.484h-3.604L47.055 22h-.867l3.2-8.402h.784L53.354 22h-.867zm-2.56-6.932a6.236 6.236 0 01-.089-.258 2.895 2.895 0 01-.07-.333h-.023a2.9 2.9 0 01-.082.333 3.431 3.431 0 01-.082.258l-1.36 3.739h3.076l-1.37-3.739zm8.692-.755V22h-.78v-7.688h-2.42v-.714h5.626v.714h-2.426zM64.828 22v-8.402h4.095v.714h-3.316v3.083h3.07v.703h-3.07v3.193h3.504V22h-4.283zm20.063-3.375c0 2.348-1.03 3.521-3.093 3.521-1.965 0-2.948-1.13-2.948-3.392v-5.156h.78v5.086c0 .921.185 1.61.556 2.068.371.457.946.686 1.723.686 1.469 0 2.203-.891 2.203-2.672v-5.168h.78v5.027zM93.948 22l-1.266-2.408a4.79 4.79 0 00-.363-.598 1.794 1.794 0 00-.364-.38 1.133 1.133 0 00-.404-.206 1.622 1.622 0 00-.474-.064h-.926V22h-.78v-8.402h2.42c.317 0 .621.046.915.14.296.094.56.233.79.416.23.184.415.414.551.692.14.277.211.6.211.966 0 .297-.045.57-.135.82a2.12 2.12 0 01-.386.669 2.282 2.282 0 01-.604.492c-.234.133-.5.232-.797.299v.023c.114.047.217.108.31.182.095.074.184.164.27.27.09.105.178.226.264.363.086.136.176.293.27.468L94.862 22h-.914zm-3.797-7.688v3.323h1.394c.282 0 .54-.041.774-.123.234-.082.433-.2.597-.352a1.53 1.53 0 00.387-.55 1.8 1.8 0 00.14-.727c0-.488-.157-.871-.474-1.149-.312-.28-.765-.421-1.36-.421h-1.458zm14.546 7.108a5.518 5.518 0 01-2.742.726c-.609 0-1.156-.103-1.641-.31a3.607 3.607 0 01-1.236-.873 3.924 3.924 0 01-.785-1.336c-.18-.52-.27-1.09-.27-1.711 0-.41.043-.805.13-1.184a4.83 4.83 0 01.386-1.066 4.18 4.18 0 01.627-.902 3.929 3.929 0 011.898-1.149 4.645 4.645 0 011.237-.158c.832 0 1.574.148 2.226.445v.862a4.706 4.706 0 00-2.32-.598 3.33 3.33 0 00-1.389.281 3.141 3.141 0 00-1.06.774 3.541 3.541 0 00-.674 1.166 4.36 4.36 0 00-.246 1.453c-.004.52.062 1 .2 1.441.14.438.347.817.62 1.137.274.32.612.57 1.014.75.402.18.867.27 1.394.27.711 0 1.329-.149 1.852-.446v-2.56h-1.91v-.71h2.689v3.698zm4.346.58v-8.402h4.095v.714h-3.316v3.083h3.07v.703h-3.07v3.193h3.504V22h-4.283zm14.189 0l-4.664-6.744a11.391 11.391 0 01-.176-.264c-.055-.09-.1-.178-.135-.264h-.029c.008.07.013.168.017.293.008.125.012.282.012.47V22h-.779v-8.402h.861l4.588 6.662c.07.105.133.205.187.299.059.09.112.173.159.252h.029a5.999 5.999 0 01-.035-.434 10.76 10.76 0 01-.012-.533v-6.246h.785V22h-.808zm11.036-.31c-.648.304-1.388.456-2.22.456a4.079 4.079 0 01-1.618-.31 3.67 3.67 0 01-1.242-.873 3.95 3.95 0 01-.791-1.324 4.943 4.943 0 01-.275-1.676c0-.637.098-1.229.293-1.776a4.24 4.24 0 01.849-1.43 3.91 3.91 0 011.331-.954 4.314 4.314 0 011.757-.346c.715 0 1.354.11 1.916.328v.832a4.249 4.249 0 00-1.927-.451c-.543 0-1.026.094-1.448.281-.422.188-.777.45-1.066.785-.289.333-.51.727-.662 1.184a4.63 4.63 0 00-.229 1.488c0 .485.069.942.205 1.371.137.426.338.8.604 1.12.269.32.603.574 1.002.761.398.188.861.282 1.389.282.808 0 1.519-.17 2.132-.51v.761zm6.719-2.837V22h-.78v-3.129l-2.636-5.273h.884l1.922 3.925c.024.047.055.118.094.211.039.094.086.213.141.358h.017a2.67 2.67 0 01.1-.246c.043-.094.096-.2.158-.317l2.01-3.931h.832l-2.742 5.255z" fill="#fff"/>
  <path fill="#E38638" d="M160 0h64v34h-64z"/>
  <path d="M183.319 23h-2.057v-3.707h-3.771V23h-2.05v-9.102h2.05v3.63h3.771v-3.63h2.057V23zm5.438 0h-2.05v-9.102h2.05V23zm10.847-.61c-.889.513-1.993.769-3.313.769-1.465 0-2.62-.404-3.466-1.213-.842-.812-1.263-1.93-1.263-3.351 0-1.43.461-2.596 1.383-3.498.923-.901 2.15-1.352 3.682-1.352.965 0 1.815.133 2.552.4v1.923c-.703-.406-1.562-.609-2.577-.609-.851 0-1.545.277-2.082.832-.534.55-.8 1.286-.8 2.209 0 .935.239 1.658.717 2.17.483.512 1.132.768 1.949.768.491 0 .88-.07 1.168-.209v-1.777h-1.822v-1.638h3.872v4.577zm10.949.61h-2.057v-3.707h-3.771V23h-2.05v-9.102h2.05v3.63h3.771v-3.63h2.057V23z" fill="#000" fill-opacity=".15"/>
  <path d="M182.319 22h-2.057v-3.707h-3.771V22h-2.05v-9.102h2.05v3.63h3.771v-3.63h2.057V22zm5.438 0h-2.05v-9.102h2.05V22zm10.847-.61c-.889.513-1.993.769-3.313.769-1.465 0-2.62-.404-3.466-1.213-.842-.812-1.263-1.93-1.263-3.351 0-1.43.461-2.596 1.383-3.498.923-.901 2.15-1.352 3.682-1.352.965 0 1.815.133 2.552.4v1.923c-.703-.406-1.562-.609-2.577-.609-.851 0-1.545.277-2.082.832-.534.55-.8 1.286-.8 2.209 0 .935.239 1.658.717 2.17.483.512 1.132.768 1.949.768.491 0 .88-.07 1.168-.209v-1.777h-1.822v-1.638h3.872v4.577zm10.949.61h-2.057v-3.707h-3.771V22h-2.05v-9.102h2.05v3.63h3.771v-3.63h2.057V22z" fill="#fff"/>
</svg>
