<svg width="220" height="34" fill="none" xmlns="http://www.w3.org/2000/svg">
  <path fill="#fff" d="M0 0h220v34H0z"/>
  <path fill="#333" d="M0 0h160v34H0z"/>
  <path d="M23.091 18.625c0 2.348-1.03 3.521-3.093 3.521-1.965 0-2.948-1.13-2.948-3.392v-5.156h.78v5.086c0 .921.185 1.61.556 2.068.371.457.946.686 1.723.686 1.469 0 2.203-.891 2.203-2.672v-5.168h.78v5.027zm5.26.105V22h-.78v-8.402h2.168c.442 0 .832.054 1.172.164.34.11.627.267.862.474.234.207.412.461.533.762.121.3.181.645.181 1.031 0 .39-.068.752-.205 1.084a2.457 2.457 0 01-.591.856 2.739 2.739 0 01-.932.562c-.367.133-.783.2-1.248.2h-1.16zm0-4.418v3.704h1.113c.723 0 1.271-.168 1.646-.504.375-.336.563-.81.563-1.424 0-1.184-.691-1.776-2.074-1.776H28.35zM36.593 22v-8.402h2.209c1.437 0 2.523.345 3.257 1.037.735.687 1.102 1.705 1.102 3.053 0 .648-.104 1.238-.31 1.769a3.767 3.767 0 01-.885 1.365 4.024 4.024 0 01-1.407.873c-.55.203-1.171.305-1.863.305h-2.103zm.779-7.688v6.979h1.289a4.73 4.73 0 001.547-.234 3.123 3.123 0 001.16-.686c.316-.305.557-.68.72-1.125.169-.445.253-.957.253-1.535 0-2.266-1.198-3.398-3.592-3.398h-1.377zM52.487 22l-.926-2.484h-3.604L47.055 22h-.867l3.2-8.402h.784L53.354 22h-.867zm-2.56-6.932a6.236 6.236 0 01-.089-.258 2.895 2.895 0 01-.07-.333h-.023a2.9 2.9 0 01-.082.333 3.431 3.431 0 01-.082.258l-1.36 3.739h3.076l-1.37-3.739zm8.692-.755V22h-.78v-7.688h-2.42v-.714h5.626v.714h-2.426zM64.828 22v-8.402h4.095v.714h-3.316v3.083h3.07v.703h-3.07v3.193h3.504V22h-4.283zm20.063-3.375c0 2.348-1.03 3.521-3.093 3.521-1.965 0-2.948-1.13-2.948-3.392v-5.156h.78v5.086c0 .921.185 1.61.556 2.068.371.457.946.686 1.723.686 1.469 0 2.203-.891 2.203-2.672v-5.168h.78v5.027zM93.948 22l-1.266-2.408a4.79 4.79 0 00-.363-.598 1.794 1.794 0 00-.364-.38 1.133 1.133 0 00-.404-.206 1.622 1.622 0 00-.474-.064h-.926V22h-.78v-8.402h2.42c.317 0 .621.046.915.14.296.094.56.233.79.416.23.184.415.414.551.692.14.277.211.6.211.966 0 .297-.045.57-.135.82a2.12 2.12 0 01-.386.669 2.282 2.282 0 01-.604.492c-.234.133-.5.232-.797.299v.023c.114.047.217.108.31.182.095.074.184.164.27.27.09.105.178.226.264.363.086.136.176.293.27.468L94.862 22h-.914zm-3.797-7.688v3.323h1.394c.282 0 .54-.041.774-.123.234-.082.433-.2.597-.352a1.53 1.53 0 00.387-.55 1.8 1.8 0 00.14-.727c0-.488-.157-.871-.474-1.149-.312-.28-.765-.421-1.36-.421h-1.458zm14.546 7.108a5.518 5.518 0 01-2.742.726c-.609 0-1.156-.103-1.641-.31a3.607 3.607 0 01-1.236-.873 3.924 3.924 0 01-.785-1.336c-.18-.52-.27-1.09-.27-1.711 0-.41.043-.805.13-1.184a4.83 4.83 0 01.386-1.066 4.18 4.18 0 01.627-.902 3.929 3.929 0 011.898-1.149 4.645 4.645 0 011.237-.158c.832 0 1.574.148 2.226.445v.862a4.706 4.706 0 00-2.32-.598 3.33 3.33 0 00-1.389.281 3.141 3.141 0 00-1.06.774 3.541 3.541 0 00-.674 1.166 4.36 4.36 0 00-.246 1.453c-.004.52.062 1 .2 1.441.14.438.347.817.62 1.137.274.32.612.57 1.014.75.402.18.867.27 1.394.27.711 0 1.329-.149 1.852-.446v-2.56h-1.91v-.71h2.689v3.698zm4.346.58v-8.402h4.095v.714h-3.316v3.083h3.07v.703h-3.07v3.193h3.504V22h-4.283zm14.189 0l-4.664-6.744a11.391 11.391 0 01-.176-.264c-.055-.09-.1-.178-.135-.264h-.029c.008.07.013.168.017.293.008.125.012.282.012.47V22h-.779v-8.402h.861l4.588 6.662c.07.105.133.205.187.299.059.09.112.173.159.252h.029a5.999 5.999 0 01-.035-.434 10.76 10.76 0 01-.012-.533v-6.246h.785V22h-.808zm11.036-.31c-.648.304-1.388.456-2.22.456a4.079 4.079 0 01-1.618-.31 3.67 3.67 0 01-1.242-.873 3.95 3.95 0 01-.791-1.324 4.943 4.943 0 01-.275-1.676c0-.637.098-1.229.293-1.776a4.24 4.24 0 01.849-1.43 3.91 3.91 0 011.331-.954 4.314 4.314 0 011.757-.346c.715 0 1.354.11 1.916.328v.832a4.249 4.249 0 00-1.927-.451c-.543 0-1.026.094-1.448.281-.422.188-.777.45-1.066.785-.289.333-.51.727-.662 1.184a4.63 4.63 0 00-.229 1.488c0 .485.069.942.205 1.371.137.426.338.8.604 1.12.269.32.603.574 1.002.761.398.188.861.282 1.389.282.808 0 1.519-.17 2.132-.51v.761zm6.719-2.837V22h-.78v-3.129l-2.636-5.273h.884l1.922 3.925c.024.047.055.118.094.211.039.094.086.213.141.358h.017a2.67 2.67 0 01.1-.246c.043-.094.096-.2.158-.317l2.01-3.931h.832l-2.742 5.255z" fill="#fff"/>
  <path fill="#ABD93D" d="M160 0h60v34h-60z"/>
  <path d="M181.537 23h-5.421v-9.102h2.05v7.439h3.371V23zm6.048.159c-1.303 0-2.366-.424-3.187-1.27-.821-.85-1.231-1.957-1.231-3.32 0-1.438.417-2.602 1.25-3.49.834-.89 1.939-1.334 3.314-1.334 1.299 0 2.349.425 3.148 1.276.804.85 1.206 1.972 1.206 3.364 0 1.43-.416 2.584-1.25 3.46-.829.876-1.913 1.314-3.25 1.314zm.089-7.65c-.72 0-1.291.272-1.714.813-.423.538-.635 1.25-.635 2.14 0 .9.212 1.614.635 2.139.423.524.978.787 1.663.787.707 0 1.267-.254 1.682-.762.415-.512.622-1.22.622-2.127 0-.943-.201-1.677-.603-2.202-.402-.525-.952-.787-1.65-.787zm19.137-1.611L204.405 23h-2.272l-1.511-5.84a4.836 4.836 0 01-.146-1.022h-.026a6.195 6.195 0 01-.165 1.022L198.737 23h-2.368l-2.393-9.102h2.241l1.282 6.061c.055.259.095.606.12 1.041h.038c.017-.325.079-.68.185-1.066l1.65-6.037h2.196l1.492 6.113c.055.224.104.55.146.978h.025a6.57 6.57 0 01.134-1.016l1.256-6.075h2.07z" fill="#000" fill-opacity=".15"/>
  <path d="M180.537 22h-5.421v-9.102h2.05v7.439h3.371V22zm6.048.159c-1.303 0-2.366-.424-3.187-1.27-.821-.85-1.231-1.957-1.231-3.32 0-1.438.417-2.602 1.25-3.49.834-.89 1.939-1.334 3.314-1.334 1.299 0 2.349.425 3.148 1.276.804.85 1.206 1.972 1.206 3.364 0 1.43-.416 2.584-1.25 3.46-.829.876-1.913 1.314-3.25 1.314zm.089-7.65c-.72 0-1.291.272-1.714.813-.423.538-.635 1.25-.635 2.14 0 .9.212 1.614.635 2.139.423.524.978.787 1.663.787.707 0 1.267-.254 1.682-.762.415-.512.622-1.22.622-2.127 0-.943-.201-1.677-.603-2.202-.402-.525-.952-.787-1.65-.787zm19.137-1.611L203.405 22h-2.272l-1.511-5.84a4.836 4.836 0 01-.146-1.022h-.026a6.195 6.195 0 01-.165 1.022L197.737 22h-2.368l-2.393-9.102h2.241l1.282 6.061c.055.259.095.606.12 1.041h.038c.017-.325.079-.68.185-1.066l1.65-6.037h2.196l1.492 6.113c.055.224.104.55.146.978h.025a6.57 6.57 0 01.134-1.016l1.256-6.075h2.07z" fill="#fff"/>
</svg>
